<svg xmlns="http://www.w3.org/2000/svg" version="1.1" xmlns:xlink="http://www.w3.org/1999/xlink" xmlns:svgjs="http://svgjs.dev/svgjs" width="1000" height="1000" viewBox="0 0 1000 1000"><rect width="1000" height="1000" fill="#7c4e29"></rect><g transform="matrix(0.7,0,0,0.7,149.57575757575756,300.9980560837648)"><svg viewBox="0 0 396 225" data-background-color="#7c4e29" preserveAspectRatio="xMidYMid meet" height="568" width="1000" xmlns="http://www.w3.org/2000/svg" xmlns:xlink="http://www.w3.org/1999/xlink"><g id="tight-bounds" transform="matrix(1,0,0,1,0.2400000000000091,0.11427912764821713)"><svg viewBox="0 0 395.52 224.77144174470357" height="224.77144174470357" width="395.52"><g><svg viewBox="0 0 395.52 224.77144174470357" height="224.77144174470357" width="395.52"><g transform="matrix(1,0,0,1,0,179.92888882013088)"><svg viewBox="0 0 395.52 44.84255292457267" height="44.84255292457267" width="395.52"><g><svg viewBox="0 0 395.52 44.84255292457267" height="44.84255292457267" width="395.52"><g><svg viewBox="0 0 395.52 44.84255292457267" height="44.84255292457267" width="395.52"><g transform="matrix(1,0,0,1,0,0)"><svg width="395.52" viewBox="3.0999999046325684 -35.400001525878906 318.82000732421875 36.150001525878906" height="44.84255292457267" data-palette-color="#e6b17e"><path d="M18.9 0.75L18.9 0.75Q15.55 0.75 12.68-0.45 9.8-1.65 7.68-3.95 5.55-6.25 4.33-9.63 3.1-13 3.1-17.35L3.1-17.35Q3.1-21.7 4.42-25.08 5.75-28.45 7.95-30.75 10.15-33.05 13.05-34.23 15.95-35.4 19.1-35.4L19.1-35.4Q21.05-35.4 22.65-35.15 24.25-34.9 25.45-34.52 26.65-34.15 27.5-33.77 28.35-33.4 28.8-33.1L28.8-33.1 27.7-30.15Q26.45-30.9 24.53-31.63 22.6-32.35 19.75-32.35L19.75-32.35Q16.5-32.35 14.08-31.25 11.65-30.15 10-28.15 8.35-26.15 7.53-23.4 6.7-20.65 6.7-17.3L6.7-17.3Q6.7-13.85 7.53-11.08 8.35-8.3 9.95-6.35 11.55-4.4 13.88-3.35 16.2-2.3 19.2-2.3L19.2-2.3Q22.5-2.3 24.73-2.93 26.95-3.55 28.1-4.2L28.1-4.2 29.05-1.3Q28.7-1.05 27.85-0.73 27-0.4 25.7-0.05 24.4 0.3 22.7 0.53 21 0.75 18.9 0.75ZM65.6-17.35L65.6-17.35Q65.6-12.9 64.3-9.5 63-6.1 60.77-3.83 58.55-1.55 55.6-0.4 52.65 0.75 49.35 0.75L49.35 0.75Q46.05 0.75 43.1-0.4 40.15-1.55 37.92-3.83 35.7-6.1 34.4-9.5 33.1-12.9 33.1-17.35L33.1-17.35Q33.1-21.8 34.4-25.18 35.7-28.55 37.92-30.83 40.15-33.1 43.1-34.25 46.05-35.4 49.35-35.4L49.35-35.4Q52.65-35.4 55.6-34.25 58.55-33.1 60.77-30.83 63-28.55 64.3-25.18 65.6-21.8 65.6-17.35ZM62-17.35L62-17.35Q62-20.85 61.1-23.63 60.2-26.4 58.55-28.35 56.9-30.3 54.57-31.33 52.25-32.35 49.35-32.35L49.35-32.35Q46.45-32.35 44.12-31.33 41.8-30.3 40.15-28.35 38.5-26.4 37.6-23.63 36.7-20.85 36.7-17.35L36.7-17.35Q36.7-13.85 37.6-11.08 38.5-8.3 40.15-6.35 41.8-4.4 44.12-3.35 46.45-2.3 49.35-2.3L49.35-2.3Q52.25-2.3 54.57-3.35 56.9-4.4 58.55-6.35 60.2-8.3 61.1-11.08 62-13.85 62-17.35ZM99.65 0L96.8 0Q95.85-1.75 94.37-4.1 92.9-6.45 91.15-9.13 89.4-11.8 87.45-14.63 85.5-17.45 83.57-20.13 81.65-22.8 79.82-25.15 78-27.5 76.55-29.2L76.55-29.2 76.55 0 73.2 0 73.2-34.65 75.9-34.65Q78.45-31.8 81.37-28.08 84.3-24.35 87.1-20.48 89.9-16.6 92.32-12.9 94.75-9.2 96.3-6.45L96.3-6.45 96.3-34.65 99.65-34.65 99.65 0ZM116.09-2.2L116.09-2.2Q120.14-2.2 122.39-3.68 124.64-5.15 124.64-8.45L124.64-8.45Q124.64-10.35 123.92-11.63 123.19-12.9 121.99-13.78 120.79-14.65 119.24-15.28 117.69-15.9 115.99-16.6L115.99-16.6Q113.84-17.45 112.14-18.35 110.44-19.25 109.24-20.38 108.04-21.5 107.42-22.95 106.79-24.4 106.79-26.35L106.79-26.35Q106.79-30.8 109.74-33.1 112.69-35.4 117.94-35.4L117.94-35.4Q119.34-35.4 120.69-35.2 122.04-35 123.22-34.68 124.39-34.35 125.37-33.95 126.34-33.55 126.99-33.1L126.99-33.1 125.79-30.25Q124.34-31.25 122.27-31.85 120.19-32.45 117.79-32.45L117.79-32.45Q116.14-32.45 114.77-32.13 113.39-31.8 112.39-31.08 111.39-30.35 110.82-29.25 110.24-28.15 110.24-26.6L110.24-26.6Q110.24-25 110.84-23.9 111.44-22.8 112.52-22 113.59-21.2 115.04-20.55 116.49-19.9 118.19-19.2L118.19-19.2Q120.24-18.35 122.07-17.5 123.89-16.65 125.24-15.5 126.59-14.35 127.39-12.7 128.19-11.05 128.19-8.65L128.19-8.65Q128.19-3.95 124.92-1.6 121.64 0.75 116.04 0.75L116.04 0.75Q114.04 0.75 112.39 0.5 110.74 0.25 109.44-0.13 108.14-0.5 107.24-0.9 106.34-1.3 105.84-1.6L105.84-1.6 106.94-4.55Q107.44-4.25 108.29-3.85 109.14-3.45 110.29-3.08 111.44-2.7 112.89-2.45 114.34-2.2 116.09-2.2ZM130.89-34.65L156.49-34.65 156.49-31.7 145.39-31.7 145.39 0 141.99 0 141.99-31.7 130.89-31.7 130.89-34.65ZM184.99-24.25L184.99-24.25Q184.99-20.35 182.94-18.1 180.89-15.85 177.54-14.85L177.54-14.85Q178.34-13.85 179.61-12.15 180.89-10.45 182.24-8.43 183.59-6.4 184.89-4.2 186.19-2 187.09 0L187.09 0 183.44 0Q182.39-2 181.16-4 179.94-6 178.66-7.88 177.39-9.75 176.19-11.35 174.99-12.95 174.09-14.15L174.09-14.15Q172.49-14 170.89-14L170.89-14 165.29-14 165.29 0 161.89 0 161.89-34Q163.69-34.5 166.11-34.73 168.54-34.95 170.59-34.95L170.59-34.95Q177.74-34.95 181.36-32.25 184.99-29.55 184.99-24.25ZM170.99-32L170.99-32Q169.09-32 167.66-31.88 166.24-31.75 165.29-31.65L165.29-31.65 165.29-16.9 169.99-16.9Q172.34-16.9 174.44-17.13 176.54-17.35 178.09-18.13 179.64-18.9 180.54-20.35 181.44-21.8 181.44-24.3L181.44-24.3Q181.44-26.6 180.54-28.1 179.64-29.6 178.19-30.48 176.74-31.35 174.86-31.68 172.99-32 170.99-32ZM205.29 0.75L205.29 0.75Q201.84 0.75 199.41-0.3 196.99-1.35 195.49-3.2 193.99-5.05 193.31-7.53 192.64-10 192.64-12.85L192.64-12.85 192.64-34.65 196.04-34.65 196.04-13.3Q196.04-10.45 196.71-8.38 197.39-6.3 198.59-4.95 199.79-3.6 201.49-2.95 203.19-2.3 205.29-2.3L205.29-2.3Q207.39-2.3 209.09-2.95 210.79-3.6 211.99-4.95 213.19-6.3 213.86-8.38 214.54-10.45 214.54-13.3L214.54-13.3 214.54-34.65 217.94-34.65 217.94-12.85Q217.94-10 217.26-7.53 216.59-5.05 215.09-3.2 213.59-1.35 211.16-0.3 208.74 0.75 205.29 0.75ZM241.18 0.75L241.18 0.75Q237.83 0.75 234.96-0.45 232.08-1.65 229.96-3.95 227.83-6.25 226.61-9.63 225.38-13 225.38-17.35L225.38-17.35Q225.38-21.7 226.71-25.08 228.03-28.45 230.23-30.75 232.43-33.05 235.33-34.23 238.23-35.4 241.38-35.4L241.38-35.4Q243.33-35.4 244.93-35.15 246.53-34.9 247.73-34.52 248.93-34.15 249.78-33.77 250.63-33.4 251.08-33.1L251.08-33.1 249.98-30.15Q248.73-30.9 246.81-31.63 244.88-32.35 242.03-32.35L242.03-32.35Q238.78-32.35 236.36-31.25 233.93-30.15 232.28-28.15 230.63-26.15 229.81-23.4 228.98-20.65 228.98-17.3L228.98-17.3Q228.98-13.85 229.81-11.08 230.63-8.3 232.23-6.35 233.83-4.4 236.16-3.35 238.48-2.3 241.48-2.3L241.48-2.3Q244.78-2.3 247.01-2.93 249.23-3.55 250.38-4.2L250.38-4.2 251.33-1.3Q250.98-1.05 250.13-0.73 249.28-0.4 247.98-0.05 246.68 0.3 244.98 0.53 243.28 0.75 241.18 0.75ZM257.23 0L257.23-34.65 260.63-34.65 260.63 0 257.23 0ZM266.03-34.65L291.63-34.65 291.63-31.7 280.53-31.7 280.53 0 277.13 0 277.13-31.7 266.03-31.7 266.03-34.65ZM309.92 0L306.52 0 306.52-14.25Q302.97-19.7 300-24.78 297.02-29.85 294.47-34.65L294.47-34.65 298.42-34.65Q300.52-30.25 303.05-25.73 305.57-21.2 308.32-17.1L308.32-17.1Q310.97-21.2 313.52-25.73 316.07-30.25 318.22-34.65L318.22-34.65 321.92-34.65Q319.27-29.9 316.32-24.78 313.37-19.65 309.92-14.35L309.92-14.35 309.92 0Z" opacity="1" transform="matrix(1,0,0,1,0,0)" fill="#e6b17e" class="undefined-text-0" data-fill-palette-color="primary" id="text-0"></path></svg></g></svg></g></svg></g></svg></g><g transform="matrix(1,0,0,1,118.38180611415596,0)"><svg viewBox="0 0 158.75638777168805 158.75638777168805" height="158.75638777168805" width="158.75638777168805"><g><svg></svg></g><g id="icon-0"><svg viewBox="0 0 158.75638777168805 158.75638777168805" height="158.75638777168805" width="158.75638777168805"><g><path d="M0 79.378c0-43.839 35.539-79.378 79.378-79.378 43.839 0 79.378 35.539 79.378 79.378 0 43.839-35.539 79.378-79.378 79.378-43.839 0-79.378-35.539-79.378-79.378zM79.378 154.712c41.606 0 75.334-33.728 75.334-75.334 0-41.606-33.728-75.334-75.334-75.334-41.606 0-75.334 33.728-75.334 75.334 0 41.606 33.728 75.334 75.334 75.334z" data-fill-palette-color="tertiary" fill="#e6b17e" stroke="transparent"></path></g><g transform="matrix(1,0,0,1,32.33479627677773,39.49490634267453)"><svg viewBox="0 0 94.0867952181326 79.76657508633899" height="79.76657508633899" width="94.0867952181326"><g><svg xmlns="http://www.w3.org/2000/svg" xmlns:xlink="http://www.w3.org/1999/xlink" version="1.1" x="0" y="0" viewBox="4.010080337524414 11.209622383117676 91.97756958007812 77.97837829589844" enable-background="new 0 0 100 100" xml:space="preserve" height="79.76657508633899" width="94.0867952181326" class="icon-s-0" data-fill-palette-color="accent" id="s-0"><g fill="#d9bca9" data-fill-palette-color="accent"><path d="M84.336 89.188H15.664c-1.378 0-2.5-1.121-2.5-2.5V51.5H6c-1.358 0-1.791-0.9-1.891-1.177-0.1-0.276-0.347-1.244 0.695-2.116l43.467-36.403c0.947-0.793 2.514-0.792 3.458 0l43.465 36.404c1.041 0.871 0.795 1.839 0.695 2.116C95.79 50.6 95.357 51.5 94 51.5h-7.164v35.188C86.836 88.066 85.715 89.188 84.336 89.188zM16.164 86.188h67.672V51c0-1.378 1.121-2.5 2.5-2.5h4.536L50.001 14.269 9.128 48.5h4.536c1.378 0 2.5 1.122 2.5 2.5V86.188z" fill="#d9bca9" data-fill-palette-color="accent"></path></g></svg></g></svg></g></svg></g></svg></g><g></g></svg></g><defs></defs></svg><rect width="395.52" height="224.77144174470357" fill="none" stroke="none" visibility="hidden"></rect></g></svg></g></svg>